<?xml version="1.0" ?><svg viewBox="0 0 32 32" xmlns="http://www.w3.org/2000/svg"><defs><style>.cls-1{fill:none;}.cls-2{fill:#ffffff;}.cls-3{fill:#2562E9;}.cls-4{fill:#ffffff;}</style></defs><title/><g data-name="new mail" id="new_mail"><rect class="cls-1" height="32" id="wrapper" width="32" x="-0.05"/><rect class="cls-2" height="21.63" rx="1" ry="1" width="20.6" x="5.59" y="2.7"/><path class="cls-3" d="M25.19,25.33H6.59a2,2,0,0,1-2-2V3.7a2,2,0,0,1,2-2h18.6a2,2,0,0,1,2,2V23.33A2,2,0,0,1,25.19,25.33Zm0-2v0ZM6.59,3.7V23.33h18.6V3.7Z"/><path class="cls-4" d="M28,29.3H3.81a1,1,0,0,1-1-1.07V13.39a1,1,0,0,1,1.36-1l11.26,6.12a.85.85,0,0,0,.82,0l11.27-6.12a1,1,0,0,1,1.35,1V28.23A1,1,0,0,1,28,29.3Z"/><path class="cls-3" d="M28,30.3H3.81a2,2,0,0,1-1.95-2.07V13.39a2.09,2.09,0,0,1,1-1.8,1.82,1.82,0,0,1,1.83,0l11.2,6.07,11.2-6.07a1.83,1.83,0,0,1,1.84,0,2.11,2.11,0,0,1,1,1.8V28.23A2,2,0,0,1,28,30.3ZM3.89,13.39l0,14.84,24,.07,0-14.91h0l-11.14,6a1.87,1.87,0,0,1-1.78,0Z"/><path class="cls-3" d="M20.36,8.31H11.42a1,1,0,1,1,0-2h8.94a1,1,0,1,1,0,2Z"/><path class="cls-3" d="M21.9,12.59h-12a1,1,0,0,1,0-2h12a1,1,0,0,1,0,2Z"/></g></svg>