<?xml version="1.0" ?><svg viewBox="0 0 32 32" xmlns="http://www.w3.org/2000/svg"><defs><style>.cls-1{fill:none;}.cls-2{fill:#2562E9;}.cls-3{fill:#ffffff;}</style></defs><title/><g data-name="id card" id="id_card"><rect class="cls-1" height="32" id="wrapper" width="32"/><path class="cls-2" d="M23.92,30.16H8.08a2,2,0,0,1-2-2V3.84a2,2,0,0,1,2-2H23.92a2,2,0,0,1,2,2V28.16A2,2,0,0,1,23.92,30.16Zm0-2v0ZM8.08,3.84V28.16H23.92V3.84Z"/><rect class="cls-3" height="10.34" rx="1" ry="1" width="17.84" x="7.08" y="18.82"/><path class="cls-2" d="M23.92,30.16H8.08a2,2,0,0,1-2-2V19.82a2,2,0,0,1,2-2H23.92a2,2,0,0,1,2,2v8.34A2,2,0,0,1,23.92,30.16Zm0-2v0Zm0-8.34H8.08v8.34H23.92Z"/><path class="cls-2" d="M20.15,26.55h-8.3a1,1,0,1,1,0-2h8.3a1,1,0,0,1,0,2Z"/><path class="cls-2" d="M18.07,23.5H13.93a1,1,0,0,1,0-2h4.14a1,1,0,0,1,0,2Z"/><circle class="cls-3" cx="16" cy="10.34" r="3.09"/><path class="cls-2" d="M16,14.44a4.1,4.1,0,1,1,4.09-4.1A4.1,4.1,0,0,1,16,14.44Zm0-6.19a2.1,2.1,0,1,0,2.09,2.09A2.1,2.1,0,0,0,16,8.25Z"/><path class="cls-2" d="M22.38,18.82h-2a4.38,4.38,0,1,0-8.76,0h-2a6.38,6.38,0,1,1,12.76,0Z"/></g></svg>