<?xml version="1.0" ?><svg viewBox="0 0 32 32" xmlns="http://www.w3.org/2000/svg"><defs><style>.cls-1{fill:none;}.cls-2{fill:#2562E9;}.cls-3{fill:#ffffff;}</style></defs><title/><g id="phone"><rect class="cls-1" height="32" id="wrapper" width="32"/><path class="cls-2" d="M20.69,30.93H11.31a5,5,0,0,1-5-5V6.07a5,5,0,0,1,5-5h9.38a5,5,0,0,1,5,5V25.93A5,5,0,0,1,20.69,30.93ZM11.31,3.07a3,3,0,0,0-3,3V25.93a3,3,0,0,0,3,3h9.38a3,3,0,0,0,3-3V6.07a3,3,0,0,0-3-3Z"/><path class="cls-2" d="M20.15,27.32h-8.3a1,1,0,0,1,0-2h8.3a1,1,0,0,1,0,2Z"/><path class="cls-3" d="M18.36,5.38H13.58a1,1,0,0,1-1-.85l-.54-2.46h7.88l-.61,2.49A1,1,0,0,1,18.36,5.38Z"/><path class="cls-2" d="M18.36,6.38H13.58a2,2,0,0,1-1.95-1.63l-.54-2.46a1,1,0,0,1,.19-.85,1,1,0,0,1,.78-.37h7.88a1,1,0,0,1,.78.38,1,1,0,0,1,.19.86L20.3,4.8A2,2,0,0,1,18.36,6.38Zm-5-3.31.27,1.24,4.74.07.33-1.31Z"/></g></svg>