<?xml version="1.0" ?><svg viewBox="0 0 512 512" xmlns="http://www.w3.org/2000/svg"><defs><style>.cls-1{fill:#202d40;}.cls-2{fill:#bdc3c8;}.cls-3{fill:#0b0d20;}.cls-4{fill:#c0402b;}</style></defs><title/><g id="Google"><g id="Gdocs"><path class="cls-1" d="M413.89,157.42V445.91A28.09,28.09,0,0,1,385.8,474H126.2a28.08,28.08,0,0,1-28.09-28.09V66.09A28.08,28.08,0,0,1,126.2,38H294.47Z"/><rect class="cls-2" height="17.94" rx="8.97" width="161.48" x="175.25" y="256.9"/><rect class="cls-2" height="17.94" rx="8.97" width="161.48" x="175.25" y="296.97"/><rect class="cls-2" height="17.94" rx="8.97" width="161.48" x="175.25" y="337.04"/><rect class="cls-2" height="17.94" rx="8.97" width="114.84" x="175.25" y="377.12"/><polygon class="cls-3" points="310.76 154.82 413.89 197.31 413.89 157.42 355.42 140.16 310.76 154.82"/><path class="cls-4" d="M413.89,157.42H322.56a28.08,28.08,0,0,1-28.09-28.09V38Z"/></g></g></svg>